<svg width="30" height="28" viewBox="0 0 30 28" fill="none" xmlns="http://www.w3.org/2000/svg">
<path d="M10.5046 22.8453H16.2501V3.2024C16.2501 2.96787 16.2113 2.73563 16.1359 2.51896C16.0605 2.30229 15.9499 2.10543 15.8106 1.93962C15.6712 1.77382 15.5058 1.64233 15.3238 1.55265C15.1418 1.46298 14.9467 1.41688 14.7497 1.41699H4.25016M1.25 15.702V21.0591C1.24991 21.2936 1.28863 21.5258 1.36395 21.7426C1.43928 21.9593 1.54973 22.1562 1.689 22.3221C1.82828 22.488 1.99364 22.6196 2.17564 22.7093C2.35764 22.7991 2.55272 22.8453 2.74972 22.8453H4.05505" stroke="#72AEC8" stroke-width="2" stroke-linecap="round" stroke-linejoin="round"/>
<path d="M19.0552 22.8453H16.2494V4.9886H22.6248C22.9615 4.9733 23.2926 5.09357 23.5647 5.32997C23.8369 5.56638 24.0341 5.90512 24.1245 6.29145L25.2492 11.238L27.1096 11.7917C27.4425 11.889 27.7373 12.1194 27.9448 12.4443C28.1522 12.7693 28.2597 13.1691 28.2493 13.5771V21.0598C28.2493 21.5334 28.0913 21.9875 27.8101 22.3223C27.5288 22.6572 27.1474 22.8453 26.7496 22.8453H25.414" stroke="#72AEC8" stroke-width="2" stroke-linecap="round" stroke-linejoin="round"/>
<path d="M1.25 8.55957H10.2498M7.24961 19.2737C6.85176 19.2664 6.45665 19.3533 6.0873 19.5295C5.71795 19.7057 5.38172 19.9676 5.09819 20.2999C4.81466 20.6323 4.5895 21.0285 4.43581 21.4654C4.28212 21.9023 4.20297 22.3713 4.20297 22.845C4.20297 23.3187 4.28212 23.7876 4.43581 24.2246C4.5895 24.6615 4.81466 25.0577 5.09819 25.39C5.38172 25.7224 5.71795 25.9843 6.0873 26.1604C6.45665 26.3366 6.85176 26.4236 7.24961 26.4162C8.03716 26.4017 8.78832 26.0191 9.34094 25.3509C9.89355 24.6827 10.2033 23.7827 10.2033 22.845C10.2033 21.9073 9.89355 21.0072 9.34094 20.3391C8.78832 19.6709 8.03716 19.2883 7.24961 19.2737ZM22.2497 19.2737C21.454 19.2737 20.6909 19.65 20.1283 20.3199C19.5656 20.9897 19.2495 21.8981 19.2495 22.8454C19.2495 23.7927 19.5656 24.7011 20.1283 25.371C20.6909 26.0408 21.454 26.4171 22.2497 26.4171C23.0454 26.4171 23.8085 26.0408 24.3711 25.371C24.9338 24.7011 25.2499 23.7927 25.2499 22.8454C25.2499 21.8981 24.9338 20.9897 24.3711 20.3199C23.8085 19.65 23.0454 19.2737 22.2497 19.2737Z" stroke="#72AEC8" stroke-width="2" stroke-linecap="round" stroke-linejoin="round"/>
</svg>
